<svg width="1800" height="1000" viewBox="0 0 1800 1000" fill="none" xmlns="http://www.w3.org/2000/svg">
  <defs>
    <linearGradient id="bg" x1="0" y1="0" x2="1800" y2="1000">
      <stop offset="0" stop-color="#02030a"/>
      <stop offset="0.42" stop-color="#07111f"/>
      <stop offset="1" stop-color="#16111f"/>
    </linearGradient>
    <radialGradient id="warmCore" cx="52%" cy="50%" r="58%">
      <stop offset="0" stop-color="#f8e7b0" stop-opacity="0.34"/>
      <stop offset="0.22" stop-color="#f97316" stop-opacity="0.26"/>
      <stop offset="0.48" stop-color="#1d4ed8" stop-opacity="0.16"/>
      <stop offset="1" stop-color="#020617" stop-opacity="0"/>
    </radialGradient>
    <linearGradient id="gold" x1="0" y1="0" x2="1" y2="1">
      <stop offset="0" stop-color="#fff7d6"/>
      <stop offset="0.35" stop-color="#d8b76a"/>
      <stop offset="0.72" stop-color="#a66f1f"/>
      <stop offset="1" stop-color="#4a2f08"/>
    </linearGradient>
    <linearGradient id="lane" x1="260" y1="500" x2="1540" y2="500">
      <stop offset="0" stop-color="#38bdf8"/>
      <stop offset="0.38" stop-color="#f8e7b0"/>
      <stop offset="0.68" stop-color="#fb923c"/>
      <stop offset="1" stop-color="#22c55e"/>
    </linearGradient>
    <filter id="shadow" x="-40%" y="-40%" width="180%" height="180%">
      <feDropShadow dx="0" dy="28" stdDeviation="30" flood-color="#000000" flood-opacity="0.72"/>
    </filter>
    <filter id="glow" x="-50%" y="-50%" width="200%" height="200%">
      <feGaussianBlur stdDeviation="6" result="blur"/>
      <feMerge><feMergeNode in="blur"/><feMergeNode in="SourceGraphic"/></feMerge>
    </filter>
    <pattern id="micro" width="72" height="72" patternUnits="userSpaceOnUse">
      <path d="M0 36H24M48 36H72M36 0V24M36 48V72" stroke="#334155" stroke-width="1" opacity="0.30"/>
      <circle cx="36" cy="36" r="2" fill="#d8b76a" opacity="0.34"/>
    </pattern>
  </defs>

  <rect width="1800" height="1000" fill="url(#bg)"/>
  <rect width="1800" height="1000" fill="url(#warmCore)"/>
  <rect width="1800" height="1000" fill="url(#micro)" opacity="0.52"/>

  <rect x="54" y="52" width="1692" height="896" rx="38" stroke="#334155" stroke-width="2"/>
  <rect x="86" y="84" width="1628" height="832" rx="28" stroke="#111827" stroke-width="2"/>

  <text x="110" y="130" font-family="Inter, Arial, sans-serif" font-size="43" fill="#f8fafc" font-weight="950" letter-spacing="1.5">ELYRIA ACCELERATOR FABRIC</text>
  <text x="112" y="169" font-family="Inter, Arial, sans-serif" font-size="17" fill="#f8e7b0" font-weight="850">15D+ PRE-DISPATCH ADMISSIBILITY BOUNDARY FOR ACCELERATOR-BOUND AI WORKLOADS</text>
  <text x="112" y="199" font-family="Inter, Arial, sans-serif" font-size="13" fill="#94a3b8">workload envelope · SMC witness · fabric mesh · thermo-standing · corridor law · receipt/replay · fail-closed dispatch</text>

  <g transform="translate(1240 105)" filter="url(#shadow)">
    <rect width="430" height="68" rx="20" fill="#050814" stroke="url(#gold)" stroke-width="2"/>
    <text x="215" y="42" text-anchor="middle" font-family="Inter, Arial, sans-serif" font-size="16" fill="#f8e7b0" font-weight="950">PROTECTED PUBLIC PROOF SURFACE</text>
  </g>

  <!-- left governed workload envelope -->
  <g transform="translate(138 328)" filter="url(#shadow)">
    <rect x="0" y="0" width="360" height="310" rx="30" fill="#050814" stroke="#334155" stroke-width="2"/>
    <path d="M36 48H278L324 94V262H36Z" fill="#07111f" stroke="url(#gold)" stroke-width="2.4"/>
    <path d="M278 48V94H324" stroke="#d8b76a" stroke-width="2"/>
    <circle cx="180" cy="158" r="42" fill="#f8e7b0" opacity="0.92" filter="url(#glow)"/>
    <path d="M106 118H254M92 158H268M106 198H254" stroke="#334155" stroke-width="2"/>
    <text x="180" y="350" text-anchor="middle" font-family="Inter, Arial, sans-serif" font-size="23" fill="#f8fafc" font-weight="950">WORKLOAD ENVELOPE</text>
    <text x="180" y="380" text-anchor="middle" font-family="Inter, Arial, sans-serif" font-size="13" fill="#cbd5e1">tenant · model · data · corridor</text>
  </g>

  <!-- dispatch lanes entering gate -->
  <g filter="url(#glow)" opacity="0.92">
    <path d="M498 450 C610 384, 706 384, 808 456" stroke="url(#lane)" stroke-width="6" fill="none" stroke-linecap="round"/>
    <path d="M498 505 C628 505, 705 505, 806 505" stroke="#38bdf8" stroke-width="3" fill="none" stroke-linecap="round" opacity="0.60"/>
    <path d="M498 560 C610 626, 706 626, 808 554" stroke="#f8e7b0" stroke-width="2.6" fill="none" stroke-linecap="round" opacity="0.62"/>
  </g>

  <!-- central standing / SMC gate -->
  <g transform="translate(900 505)" filter="url(#shadow)">
    <circle r="160" fill="#050814" stroke="#334155" stroke-width="2"/>
    <circle r="132" stroke="url(#gold)" stroke-width="4"/>
    <circle r="98" stroke="#38bdf8" stroke-width="2" opacity="0.55"/>
    <circle r="62" fill="#111827" stroke="#d8b76a" stroke-width="2.5"/>
    <circle r="20" fill="#f8e7b0" filter="url(#glow)"/>
    <path d="M0 -160 L35 -62 L132 -94 L62 0 L132 94 L35 62 L0 160 L-35 62 L-132 94 L-62 0 L-132 -94 L-35 -62 Z" stroke="url(#lane)" stroke-width="3" fill="none"/>
    <text y="-20" text-anchor="middle" font-family="Inter, Arial, sans-serif" font-size="22" fill="#f8fafc" font-weight="950">15D+</text>
    <text y="14" text-anchor="middle" font-family="Inter, Arial, sans-serif" font-size="17" fill="#f8e7b0" font-weight="950">STANDING</text>
    <text y="44" text-anchor="middle" font-family="Inter, Arial, sans-serif" font-size="11" fill="#94a3b8">SMC WITNESS</text>
  </g>

  <!-- gated lanes exiting to fabric -->
  <g filter="url(#glow)" opacity="0.94">
    <path d="M1058 450 C1138 392, 1198 384, 1272 430" stroke="url(#lane)" stroke-width="6" fill="none" stroke-linecap="round"/>
    <path d="M1058 505 C1142 505, 1196 505, 1272 505" stroke="#38bdf8" stroke-width="3" fill="none" stroke-linecap="round" opacity="0.62"/>
    <path d="M1058 560 C1138 618, 1198 626, 1272 580" stroke="#f8e7b0" stroke-width="2.6" fill="none" stroke-linecap="round" opacity="0.62"/>
  </g>

  <!-- right accelerator fabric mesh -->
  <g transform="translate(1260 278)" filter="url(#shadow)">
    <rect x="0" y="0" width="430" height="500" rx="34" fill="#050814" stroke="#334155" stroke-width="2"/>
    <text x="215" y="48" text-anchor="middle" font-family="Inter, Arial, sans-serif" font-size="23" fill="#f8fafc" font-weight="950">ACCELERATOR FABRIC MESH</text>
    <text x="215" y="76" text-anchor="middle" font-family="Inter, Arial, sans-serif" font-size="12" fill="#94a3b8">GPU nodes · partitions · fabric switch · sideband control</text>

    <!-- mesh links -->
    <g stroke="#334155" stroke-width="3" opacity="0.88">
      <path d="M96 142H215H334M96 252H215H334M96 362H215H334"/>
      <path d="M96 142V252V362M215 142V252V362M334 142V252V362"/>
      <path d="M96 142L215 252L334 142M96 362L215 252L334 362"/>
      <path d="M96 252L215 142L334 252M96 252L215 362L334 252"/>
    </g>

    <!-- active admitted path -->
    <path d="M28 252H96L215 142L334 252H402" stroke="url(#lane)" stroke-width="6" fill="none" stroke-linecap="round" filter="url(#glow)"/>

    <!-- GPU nodes -->
    <g font-family="Inter, Arial, sans-serif" font-size="11" font-weight="900">
      <rect x="66" y="112" width="60" height="60" rx="12" fill="#111827" stroke="#38bdf8" stroke-width="2"/>
      <text x="96" y="147" text-anchor="middle" fill="#cbd5e1">GPU</text>
      <rect x="185" y="112" width="60" height="60" rx="12" fill="#111827" stroke="#d8b76a" stroke-width="2"/>
      <text x="215" y="147" text-anchor="middle" fill="#cbd5e1">MIG</text>
      <rect x="304" y="112" width="60" height="60" rx="12" fill="#111827" stroke="#38bdf8" stroke-width="2"/>
      <text x="334" y="147" text-anchor="middle" fill="#cbd5e1">GPU</text>

      <rect x="66" y="222" width="60" height="60" rx="12" fill="#111827" stroke="#f97316" stroke-width="2"/>
      <text x="96" y="257" text-anchor="middle" fill="#cbd5e1">TEN</text>
      <rect x="180" y="217" width="70" height="70" rx="14" fill="#050814" stroke="url(#gold)" stroke-width="3"/>
      <text x="215" y="246" text-anchor="middle" fill="#f8e7b0">FAB</text>
      <text x="215" y="264" text-anchor="middle" fill="#f8e7b0">SW</text>
      <rect x="304" y="222" width="60" height="60" rx="12" fill="#111827" stroke="#22c55e" stroke-width="2"/>
      <text x="334" y="257" text-anchor="middle" fill="#cbd5e1">OK</text>

      <rect x="66" y="332" width="60" height="60" rx="12" fill="#111827" stroke="#38bdf8" stroke-width="2"/>
      <text x="96" y="367" text-anchor="middle" fill="#cbd5e1">GPU</text>
      <rect x="185" y="332" width="60" height="60" rx="12" fill="#111827" stroke="#ef4444" stroke-width="2"/>
      <text x="215" y="367" text-anchor="middle" fill="#fecaca">FENCE</text>
      <rect x="304" y="332" width="60" height="60" rx="12" fill="#111827" stroke="#38bdf8" stroke-width="2"/>
      <text x="334" y="367" text-anchor="middle" fill="#cbd5e1">GPU</text>
    </g>

    <!-- sideband SMC line -->
    <path d="M36 430H394" stroke="#f8e7b0" stroke-width="2.5" stroke-dasharray="8 8" opacity="0.82"/>
    <text x="215" y="456" text-anchor="middle" font-family="Inter, Arial, sans-serif" font-size="13" fill="#f8e7b0" font-weight="900">SIDEBAND SMC: HALT · THROTTLE · FENCE · REVOKE</text>
  </g>

  <!-- decision tokens -->
  <g font-family="Inter, Arial, sans-serif" font-size="13" font-weight="950">
    <rect x="116" y="805" width="246" height="62" rx="17" fill="#050814" stroke="#334155"/>
    <text x="239" y="831" text-anchor="middle" fill="#f8fafc">PRE-DISPATCH</text><text x="239" y="853" text-anchor="middle" fill="#94a3b8" font-size="11">before compute is consumed</text>
    <rect x="390" y="805" width="246" height="62" rx="17" fill="#050814" stroke="#334155"/>
    <text x="513" y="831" text-anchor="middle" fill="#f8fafc">THERMO-STANDING</text><text x="513" y="853" text-anchor="middle" fill="#94a3b8" font-size="11">capacity carries burden</text>
    <rect x="664" y="805" width="246" height="62" rx="17" fill="#050814" stroke="#334155"/>
    <text x="787" y="831" text-anchor="middle" fill="#f8fafc">CORRIDOR LAW</text><text x="787" y="853" text-anchor="middle" fill="#94a3b8" font-size="11">tenant · model · route</text>
    <rect x="938" y="805" width="246" height="62" rx="17" fill="#050814" stroke="#334155"/>
    <text x="1061" y="831" text-anchor="middle" fill="#f8fafc">RECEIPT / REPLAY</text><text x="1061" y="853" text-anchor="middle" fill="#94a3b8" font-size="11">decision proof persists</text>
    <rect x="1212" y="805" width="246" height="62" rx="17" fill="#050814" stroke="#334155"/>
    <text x="1335" y="831" text-anchor="middle" fill="#f8fafc">STANDING DECAY</text><text x="1335" y="853" text-anchor="middle" fill="#94a3b8" font-size="11">revokes before collapse</text>
  </g>

  <rect x="118" y="898" width="1564" height="52" rx="18" fill="#050814" stroke="url(#gold)" stroke-width="1.8"/>
  <text x="900" y="931" text-anchor="middle" font-family="Georgia, serif" font-size="25" fill="#f8e7b0">Nothing reaches accelerator execution unless standing resolves first.</text>
</svg>